#N canvas 608 146 502 420 10;
#X obj 167 171 +;
#X obj 205 171 f;
#X floatatom 167 84 5 0 0 1 stream_of_numbers_entering - -, f 5;
#X obj 167 126 t a b;
#X obj 264 173 +;
#X obj 302 172 f;
#X msg 264 143 1;
#X obj 264 211 sel 20;
#X obj 152 322 f;
#X obj 152 344 / 20;
#X floatatom 152 381 5 0 0 1 average - -, f 5;
#X msg 208 255 0;
#X obj 264 238 t b b;
#X floatatom 339 253 5 0 0 2 average_every_X_numbers - -, f 5;
#X obj 167 52 random 20;
#X obj 167 30 metro 300;
#X obj 167 10 tgl 15 0 empty empty empty 17 7 0 10 -262144 -1 -1 0
1;
#X floatatom 64 339 5 0 0 1 Total - -, f 5;
#X floatatom 218 11 5 0 0 0 - - -, f 5;
#X connect 0 0 1 0;
#X connect 0 0 8 1;
#X connect 1 0 0 1;
#X connect 2 0 3 0;
#X connect 3 0 0 0;
#X connect 3 1 6 0;
#X connect 4 0 5 0;
#X connect 4 0 7 0;
#X connect 5 0 4 1;
#X connect 6 0 4 0;
#X connect 7 0 12 0;
#X connect 8 0 9 0;
#X connect 8 0 17 0;
#X connect 9 0 10 0;
#X connect 11 0 4 1;
#X connect 11 0 0 1;
#X connect 12 0 11 0;
#X connect 12 1 8 0;
#X connect 13 0 7 1;
#X connect 13 0 9 1;
#X connect 14 0 2 0;
#X connect 15 0 14 0;
#X connect 16 0 15 0;
#X connect 18 0 15 1;
