#N canvas 775 231 455 500 10;
#X obj 269 205 +;
#X obj 296 204 f;
#X msg 269 172 1;
#X obj 269 231 sel 2;
#X msg 337 211 0;
#X obj 113 102 t b a;
#X obj 198 101 t b a;
#X obj 125 357 f;
#X obj 210 357 f;
#N canvas 0 22 450 300 onebang 0;
#X obj 58 65 inlet;
#X obj 58 251 outlet;
#X msg 262 92 1;
#X obj 58 176 spigot;
#X msg 230 93 0;
#X obj 262 53 inlet reset;
#X obj 200 133 int 1;
#X obj 58 94 trigger anything bang;
#X obj 58 202 trigger anything bang;
#X obj 326 75 loadbang;
#X connect 0 0 7 0;
#X connect 2 0 6 1;
#X connect 3 0 8 0;
#X connect 4 0 6 1;
#X connect 5 0 2 0;
#X connect 6 0 3 1;
#X connect 7 0 3 0;
#X connect 7 1 6 0;
#X connect 8 0 1 0;
#X connect 8 1 4 0;
#X connect 9 0 2 0;
#X restore 198 124 pd onebang;
#N canvas 0 22 450 300 onebang 0;
#X obj 58 65 inlet;
#X obj 58 251 outlet;
#X msg 262 92 1;
#X obj 58 176 spigot;
#X msg 230 93 0;
#X obj 262 53 inlet reset;
#X obj 200 133 int 1;
#X obj 58 94 trigger anything bang;
#X obj 58 202 trigger anything bang;
#X obj 326 75 loadbang;
#X connect 0 0 7 0;
#X connect 2 0 6 1;
#X connect 3 0 8 0;
#X connect 4 0 6 1;
#X connect 5 0 2 0;
#X connect 6 0 3 1;
#X connect 7 0 3 0;
#X connect 7 1 6 0;
#X connect 8 0 1 0;
#X connect 8 1 4 0;
#X connect 9 0 2 0;
#X restore 113 124 pd onebang;
#X obj 269 258 t b b b b b;
#X obj 31 218 bng 15 250 50 0 empty empty testing_reset 17 7 0 10 -262144
-1 -1;
#X obj 113 68 inlet;
#X obj 198 70 inlet;
#X obj 210 410 outlet;
#X obj 125 416 outlet;
#X obj 31 192 init;
#X connect 0 0 1 0;
#X connect 0 0 3 0;
#X connect 1 0 0 1;
#X connect 2 0 0 0;
#X connect 3 0 11 0;
#X connect 4 0 0 1;
#X connect 5 0 10 0;
#X connect 5 1 7 1;
#X connect 6 0 9 0;
#X connect 6 1 8 1;
#X connect 7 0 16 0;
#X connect 8 0 15 0;
#X connect 9 0 2 0;
#X connect 10 0 2 0;
#X connect 11 0 10 1;
#X connect 11 1 9 1;
#X connect 11 2 7 0;
#X connect 11 3 8 0;
#X connect 11 4 4 0;
#X connect 12 0 11 0;
#X connect 13 0 5 0;
#X connect 14 0 6 0;
#X connect 17 0 12 0;
