#N canvas 1057 96 523 420 10;
#X obj 108 19 inlet;
#X obj 159 115 f;
#X obj 141 141 >;
#X obj 108 169 spigot;
#X obj 108 60 t a a a b;
#X obj 127 247 -;
#X obj 108 194 t a a a;
#X obj 108 325 spigot;
#X text 195 113 only when UP;
#X text 284 292 highest number;
#X obj 108 348 outlet;
#X obj 365 30 inlet;
#X text 407 31 bang reset;
#X msg 365 61 0;
#X obj 156 226 pipe 25;
#X obj 270 17 inlet;
#X floatatom 405 62 5 0 0 0 - - -;
#X obj 343 255 print ====>;
#X obj 270 206 route float bang;
#X obj 161 314 tgl 15 0 empty empty empty 17 7 0 10 -262144 -1 -1 0
1;
#X obj 142 283 >;
#X connect 0 0 4 0;
#X connect 1 0 2 1;
#X connect 2 0 3 1;
#X connect 3 0 6 0;
#X connect 4 0 3 0;
#X connect 4 1 2 0;
#X connect 4 2 1 1;
#X connect 4 3 1 0;
#X connect 5 0 20 0;
#X connect 6 0 7 0;
#X connect 6 1 5 0;
#X connect 6 2 14 0;
#X connect 7 0 10 0;
#X connect 11 0 13 0;
#X connect 11 0 14 0;
#X connect 11 0 16 0;
#X connect 13 0 1 1;
#X connect 13 0 3 1;
#X connect 13 0 6 0;
#X connect 13 0 10 0;
#X connect 14 0 5 1;
#X connect 15 0 18 0;
#X connect 18 0 20 1;
#X connect 20 0 7 1;
#X connect 20 0 19 0;
