#N canvas 592 203 774 565 10;
#X obj 45 30 inlet;
#X obj 175 453 outlet;
#X obj 235 268 f;
#X text 262 268 min;
#X text 360 269 max;
#X obj 454 167 f \$1;
#X obj 652 167 f \$2;
#X obj 235 245 moses 0;
#X obj 320 245 moses 0;
#X obj 175 102 trigger float float float bang bang;
#X obj 175 390 expr (($f1 - $f2) * (($f5 - $f4) / ($f3 - $f2))) + $f4
;
#X obj 364 226 f;
#X obj 320 154 t f b f;
#X obj 279 226 f;
#X obj 235 154 t f b f;
#X obj 384 269 + 1e-09;
#X obj 478 213 ==;
#X obj 478 233 sel 1;
#X obj 545 77 loadbang;
#X obj 478 299 print [autoscale];
#X floatatom 472 189 5 0 0 0 - - -;
#X obj 454 329 expr if ($f1 == $f2 \, 0 \, $f1) \; if ($f1 == $f2 \,
127 \, $f2);
#X msg 478 278 using default range (0-127);
#X text 2 476 (C) Copyright 2004 Hans-Christoph Steiner <hans@eds.org>
;
#X text 219 491 released under the GNU GPL;
#X text 417 475 $Revision: 1.5 $$Date: 2004-11-28 20:50:14 $;
#X text 417 488 $Author: eighthave $;
#X obj 45 62 route reset;
#X obj 45 81 bang;
#X msg 45 129 0;
#X msg 114 102 clear;
#X text 172 47 these [oneshot] bits are just here to get the max/min
tracking started;
#X text 8 3 [autoscale];
#X obj 478 256 onebang;
#X obj 545 100 t b b b;
#N canvas 316 385 450 300 onebang 0;
#X obj 117 34 inlet;
#X obj 117 90 spigot 1;
#X obj 117 114 t a b;
#X obj 144 136 0;
#X obj 117 161 outlet;
#X obj 177 59 1;
#X obj 177 35 inlet;
#X connect 0 0 1 0;
#X connect 1 0 2 0;
#X connect 2 0 4 0;
#X connect 2 1 3 0;
#X connect 3 0 1 1;
#X connect 5 0 1 1;
#X connect 6 0 5 0;
#X restore 279 204 pd onebang;
#N canvas 316 385 450 300 onebang 0;
#X obj 117 34 inlet;
#X obj 117 90 spigot 1;
#X obj 117 114 t a b;
#X obj 144 136 0;
#X obj 117 161 outlet;
#X obj 177 59 1;
#X obj 177 35 inlet;
#X connect 0 0 1 0;
#X connect 1 0 2 0;
#X connect 2 0 4 0;
#X connect 2 1 3 0;
#X connect 3 0 1 1;
#X connect 5 0 1 1;
#X connect 6 0 5 0;
#X restore 364 203 pd onebang;
#X connect 0 0 27 0;
#X connect 2 0 7 1;
#X connect 2 0 10 1;
#X connect 5 0 16 0;
#X connect 5 0 20 0;
#X connect 5 0 21 0;
#X connect 6 0 16 1;
#X connect 6 0 21 1;
#X connect 7 0 2 0;
#X connect 8 1 15 0;
#X connect 9 0 10 0;
#X connect 9 1 14 0;
#X connect 9 2 12 0;
#X connect 9 3 5 0;
#X connect 9 4 6 0;
#X connect 10 0 1 0;
#X connect 11 0 8 1;
#X connect 12 0 8 0;
#X connect 12 1 36 0;
#X connect 12 2 11 1;
#X connect 13 0 7 1;
#X connect 14 0 7 0;
#X connect 14 1 35 0;
#X connect 14 1 36 0;
#X connect 14 2 13 1;
#X connect 15 0 8 1;
#X connect 15 0 10 2;
#X connect 16 0 17 0;
#X connect 17 0 33 0;
#X connect 18 0 34 0;
#X connect 21 0 10 3;
#X connect 21 1 10 4;
#X connect 22 0 19 0;
#X connect 27 0 28 0;
#X connect 27 1 9 0;
#X connect 28 0 29 0;
#X connect 28 0 30 0;
#X connect 29 0 2 0;
#X connect 29 0 11 0;
#X connect 29 0 35 1;
#X connect 29 0 36 1;
#X connect 29 0 13 0;
#X connect 33 0 22 0;
#X connect 34 0 5 0;
#X connect 34 1 6 0;
#X connect 34 2 33 1;
#X connect 34 2 35 1;
#X connect 34 2 36 1;
#X connect 35 0 13 0;
#X connect 36 0 11 0;
