#N canvas 422 405 731 389 10;
#X declare -stdpath list-abs;
#X obj 408 78 declare -stdpath list-abs;
#X obj 287 166 list;
#X obj 218 217 list-compare;
#X obj 135 297 spigot;
#X obj 135 89 t a a b a;
#X obj 218 246 - 1;
#X obj 218 270 tgl 15 0 empty empty empty 17 7 0 10 -262144 -1 -1 0
1;
#X obj 268 244 tgl 15 0 empty empty empty 17 7 0 10 -262144 -1 -1 1
1;
#X obj 135 21 inlet;
#X obj 135 334 outlet;
#X connect 1 0 2 1;
#X connect 2 0 5 0;
#X connect 2 0 7 0;
#X connect 3 0 1 1;
#X connect 3 0 9 0;
#X connect 4 0 3 0;
#X connect 4 1 2 0;
#X connect 4 2 1 0;
#X connect 5 0 3 1;
#X connect 5 0 6 0;
#X connect 8 0 4 0;
