#N canvas 2 118 450 267 12;
#X obj 120 149 spigot 1;
#X obj 88 103 0;
#X obj 120 176 outlet;
#X obj 88 73 t b b;
#X obj 88 36 inlet;
#X obj 173 36 inlet reset;
#X obj 173 76 1;
#X text 267 112 vanilla onebang;
#X connect 0 0 2 0;
#X connect 1 0 0 1;
#X connect 3 0 1 0;
#X connect 3 1 0 0;
#X connect 4 0 3 0;
#X connect 5 0 6 0;
#X connect 6 0 0 1;
