#N canvas 740 88 450 300 10;
#X obj 129 143 list trim;
#X obj 129 121 list prepend \$1;
#X obj 129 89 inlet;
#X obj 129 174 outlet;
#X obj 216 90 inlet;
#X connect 0 0 3 0;
#X connect 1 0 0 0;
#X connect 2 0 1 0;
#X connect 4 0 1 1;
