#N canvas 892 250 474 382 10;
#X obj 72 181 t b;
#X obj 128 195 t b;
#X obj 155 101 moses \$2;
#X obj 155 167 moses \$1;
#X obj 200 265 outlet;
#X text 245 263 out clipped;
#X obj 72 293 outlet;
#X text 117 259 limit GUI;
#X obj 155 47 inlet;
#X obj 128 221 \$1;
#X obj 72 214 \$2;
#X msg 72 257 set \$1;
#X connect 0 0 10 0;
#X connect 1 0 9 0;
#X connect 2 0 3 0;
#X connect 2 1 0 0;
#X connect 3 0 1 0;
#X connect 3 1 4 0;
#X connect 8 0 2 0;
#X connect 9 0 11 0;
#X connect 10 0 11 0;
#X connect 11 0 6 0;
