#N canvas 558 204 649 720 10;
#X obj 199 520 readsf~;
#X obj 142 126 openpanel;
#X obj 142 103 bng 10 250 50 0 empty empty Open/File 12 5 0 8 -262144
-1 -1;
#X msg 199 301 start;
#X msg 268 455 stop;
#X obj 199 103 tgl 10 0 empty empty Start/Stop 12 5 0 8 -262144 -1
-1 0 1;
#X obj 199 261 sel 1 0;
#X obj 199 342 t a b;
#X obj 262 103 tgl 10 1 empty empty LOOP 12 5 0 8 -262144 -1 -1 0 1
;
#X obj 199 667 outlet~;
#X obj 268 666 s~ \$0-archivodeaudio;
#X obj 31 257 list prepend open;
#X obj 10 444 route list;
#X obj 307 560 spigot;
#X obj 307 583 s \$0-loop;
#X obj 323 228 r \$0-loop;
#X obj 10 421 list;
#X obj 91 189 symbol \$1;
#X obj 57 304 print :::;
#X obj 91 63 loadbang;
#X text 385 379 sfplayer \; Jose Rafael Subia Valdez \; Quito - Ecuador
\; 11|02|2021 \; jrsv (c) copyleft;
#X obj 142 150 t b a;
#X text 340 37 optional argument <path/file>;
#X connect 0 0 9 0;
#X connect 0 0 10 0;
#X connect 0 1 13 0;
#X connect 1 0 21 0;
#X connect 2 0 1 0;
#X connect 3 0 7 0;
#X connect 4 0 0 0;
#X connect 5 0 6 0;
#X connect 6 0 3 0;
#X connect 6 1 4 0;
#X connect 7 0 0 0;
#X connect 7 1 16 0;
#X connect 8 0 13 1;
#X connect 11 0 16 1;
#X connect 12 0 0 0;
#X connect 13 0 14 0;
#X connect 15 0 3 0;
#X connect 16 0 12 0;
#X connect 17 0 11 0;
#X connect 19 0 17 0;
#X connect 21 0 17 0;
#X connect 21 1 17 1;
#X coords 0 -1 1 1 155 15 2 140 100;
