#N canvas 0 22 450 300 10;
#X obj 127 133 expr if ($f1 == $f2 \, -1 \, $f1);
#X obj 127 169 sel -1;
#X obj 208 66 t b b;
#X msg 235 105 clear;
#X msg 93 243 repeat;
#X obj 93 207 t b;
#X obj 93 267 print repeated & retriggered;
#X obj 280 106 print new-sequence;
#X obj 160 243 outlet;
#X obj 127 12 inlet;
#X obj 127 37 cyclone/urn \$1;
#X connect 0 0 1 0;
#X connect 1 0 5 0;
#X connect 1 1 0 1;
#X connect 1 1 8 0;
#X connect 2 0 10 0;
#X connect 2 1 3 0;
#X connect 2 1 7 0;
#X connect 3 0 10 0;
#X connect 4 0 6 0;
#X connect 5 0 4 0;
#X connect 5 0 2 0;
#X connect 9 0 10 0;
#X connect 10 0 0 0;
#X connect 10 1 2 0;
