#N canvas 340 594 510 347 10;
#X obj 129 175 expr if ($f1 == $f2 \, -1 \, $f1);
#X obj 129 211 sel -1;
#X obj 210 108 t b b;
#X msg 271 147 clear;
#X msg 95 285 repeat;
#X obj 95 249 t b;
#X obj 95 309 print repeated & retriggered;
#X obj 162 285 outlet;
#X obj 129 54 inlet;
#X obj 129 79 cyclone/urn \$1;
#X obj 271 33 inlet;
#X obj 271 54 t b a;
#X obj 380 183 outlet;
#X obj 376 144 print -n;
#X msg 376 125 new-sequence;
#X obj 303 107 bng 15 250 50 0 empty empty empty 17 7 0 10 -262144
-1 -1;
#X obj 213 14 inlet reset_with_bang;
#X msg 303 227 -4;
#X connect 0 0 1 0;
#X connect 1 0 5 0;
#X connect 1 1 0 1;
#X connect 1 1 7 0;
#X connect 2 0 9 0;
#X connect 2 1 3 0;
#X connect 2 1 12 0;
#X connect 3 0 9 0;
#X connect 4 0 6 0;
#X connect 5 0 2 0;
#X connect 8 0 9 0;
#X connect 9 0 0 0;
#X connect 9 1 2 0;
#X connect 10 0 11 0;
#X connect 11 0 3 0;
#X connect 11 1 9 1;
#X connect 14 0 13 0;
#X connect 15 0 3 0;
#X connect 16 0 3 0;
#X connect 16 0 17 0;
#X connect 17 0 0 1;
