#N canvas 165 381 609 285 12;
#X obj 101 140 uni.rnd 10;
#X obj 168 120 bng 15 250 50 0 empty empty RESET.SEQ 17 7 0 10 -262144
-1 -1;
#X obj 101 96 bng 15 250 50 0 empty empty PRODUCE-UNI.RND 17 7 0 10
-262144 -1 -1;
#X floatatom 101 165 5 0 0 0 - - -;
#X text 125 24 produces a random sequence of numbers without repetitions
;
#X obj 394 120 bng 15 250 50 0 empty empty RESET.SEQ 17 7 0 10 -262144
-1 -1;
#X obj 334 98 bng 15 250 50 0 empty empty PRODUCE-UNI.RND 17 7 0 10
-262144 -1 -1;
#X floatatom 334 167 5 0 0 0 - - -;
#X obj 334 142 uni.rnd 5;
#X obj 185 160 bng 15 250 50 0 empty empty END.of.SEQ 17 7 0 10 -262144
-1 -1;
#X obj 394 170 bng 15 250 50 0 empty empty END.of.SEQ 17 7 0 10 -262144
-1 -1;
#X obj 101 189 print OUT.A;
#X obj 334 191 print OUT.B;
#X connect 0 0 3 0;
#X connect 0 1 9 0;
#X connect 1 0 0 1;
#X connect 2 0 0 0;
#X connect 3 0 11 0;
#X connect 5 0 8 1;
#X connect 6 0 8 0;
#X connect 7 0 12 0;
#X connect 8 0 7 0;
#X connect 8 1 10 0;
