#N canvas 573 110 927 851 12;
#X obj 699 106 \$0;
#X obj 699 83 bng 15 250 50 0 empty empty empty 17 7 0 10 -262144 -1
-1;
#X obj 199 168 t b a;
#X obj 168 257 ==;
#X obj 168 363 s \$0-rtrg;
#X obj 108 78 r \$0-rtrg;
#X obj 168 287 sel 1 0;
#X obj 272 307 i;
#X obj 199 111 random 10;
#X obj 54 333 p retrigger;
#X obj 290 152 print pre_filter;
#X obj 168 313 t b b;
#X obj 172 543 0;
#X obj 559 211 -3;
#X obj 319 371 s \$0-last_val;
#X obj 193 202 r \$0-last_val;
#X obj 273 333 t a b a;
#X text 421 371 updates last value;
#X text 44 232 stores last value to later compare, f 14;
#N canvas 280 326 962 752 compare 1;
#X obj 224 548 s \$0-rtrg;
#X obj 224 236 until;
#X obj 224 204 10;
#X obj 314 382 tabread \$0-urn.jrsv;
#X obj 314 302 f;
#X obj 352 302 + 1;
#X obj 332 218 0;
#X obj 224 268 t b b;
#X obj 224 453 ==;
#X obj 224 366 i;
#X obj 224 486 sel 1 0;
#X obj 507 332 sel 9;
#X obj 224 30 inlet from-repetition-filter;
#X obj 314 411 i;
#X floatatom 314 436 5 0 0 0 - - -;
#X obj 507 542 i;
#X obj 507 641 outlet to record-in-buffer-and-out;
#X obj 507 584 change;
#X obj 224 127 t b b a;
#X text 440 122 compares the current value against previous values
\, stored in the table;
#X connect 1 0 7 0;
#X connect 2 0 1 0;
#X connect 3 0 13 0;
#X connect 4 0 5 0;
#X connect 4 0 3 0;
#X connect 4 0 11 0;
#X connect 5 0 4 1;
#X connect 6 0 4 1;
#X connect 7 0 9 0;
#X connect 7 1 4 0;
#X connect 8 0 10 0;
#X connect 9 0 8 0;
#X connect 10 0 0 0;
#X connect 11 0 15 0;
#X connect 12 0 18 0;
#X connect 13 0 8 1;
#X connect 13 0 14 0;
#X connect 15 0 17 0;
#X connect 17 0 16 0;
#X connect 18 0 2 0;
#X connect 18 1 6 0;
#X connect 18 2 9 1;
#X connect 18 2 15 1;
#X restore 273 428 pd compare with buffer;
#N canvas 2047 109 494 351 record 1;
#X obj 169 220 tabwrite \$0-urn.jrsv;
#X obj 306 181 f;
#X obj 344 181 + 1;
#X obj 169 136 t a b;
#X obj 130 89 t a a;
#X obj 130 275 outlet;
#X obj 130 43 inlet;
#X obj 324 29 inlet;
#X floatatom 326 217 5 0 0 0 - - -;
#X connect 1 0 2 0;
#X connect 1 0 0 1;
#X connect 1 0 8 0;
#X connect 2 0 1 1;
#X connect 3 0 0 0;
#X connect 3 1 1 0;
#X connect 4 0 5 0;
#X connect 4 1 3 0;
#X connect 6 0 4 0;
#X connect 7 0 1 1;
#X restore 273 601 pd record in buffer;
#X floatatom 273 380 5 0 0 0 - - -;
#X obj 689 319 table \$0-urn.jrsv;
#X obj 154 661 f;
#X obj 192 661 + 1;
#X obj 154 705 0;
#X obj 305 749 spigot 1;
#X obj 168 231 i -3;
#X obj 199 4 inlet;
#X obj 539 7 inlet reset;
#X obj 199 86 spigot 1;
#X obj 219 43 bng 15 250 50 0 empty empty empty 17 7 0 10 -262144 -1
-1;
#X obj 154 744 s \$0-close.urn;
#X obj 252 29 r \$0-close.urn;
#X obj 539 66 1;
#X obj 539 37 t b b b b;
#X obj 519 10 bng 15 250 50 0 empty empty empty 17 7 0 10 -262144 -1
-1;
#X text 565 232 -3 is to be able to not descriminate the 0;
#X obj 199 137 + 0;
#X msg 699 135 \; \$1-urn.jrsv const -3;
#X obj 154 683 sel 9;
#X obj 273 630 t b a;
#X obj 305 774 outlet;
#X text 281 49 close when finished;
#X text 582 489 Unique Random Number \; Produces a random sequence
of numbers with out repetition, f 34;
#X text 683 701 14|01|2021;
#X text 613 666 Dr. Jose Rafael Subia Valdez;
#X text 663 683 Quito - Ecuador;
#X connect 0 0 39 0;
#X connect 1 0 0 0;
#X connect 2 0 27 0;
#X connect 2 1 3 1;
#X connect 2 1 7 1;
#X connect 3 0 6 0;
#X connect 5 0 8 0;
#X connect 6 0 11 0;
#X connect 6 1 7 0;
#X connect 7 0 16 0;
#X connect 8 0 38 0;
#X connect 11 0 4 0;
#X connect 12 0 20 1;
#X connect 12 0 23 1;
#X connect 13 0 27 1;
#X connect 15 0 27 1;
#X connect 16 0 21 0;
#X connect 16 2 14 0;
#X connect 19 0 20 0;
#X connect 20 0 41 0;
#X connect 21 0 19 0;
#X connect 23 0 24 0;
#X connect 23 0 40 0;
#X connect 24 0 23 1;
#X connect 25 0 32 0;
#X connect 25 0 26 1;
#X connect 26 0 42 0;
#X connect 27 0 3 0;
#X connect 28 0 30 0;
#X connect 29 0 35 0;
#X connect 30 0 8 0;
#X connect 31 0 30 0;
#X connect 33 0 30 1;
#X connect 34 0 30 1;
#X connect 34 0 26 1;
#X connect 35 0 34 0;
#X connect 35 1 13 0;
#X connect 35 2 12 0;
#X connect 35 3 0 0;
#X connect 36 0 35 0;
#X connect 38 0 2 0;
#X connect 40 0 25 0;
#X connect 41 0 23 0;
#X connect 41 1 26 0;
