#N canvas 62 22 721 747 10;
#X obj 239 285 list split 1;
#X obj 273 306 list split 2;
#X obj 300 354 unpack;
#X obj 300 390 swap;
#X obj 300 419 pack;
#X obj 300 452 t b a;
#X msg 166 321 0;
#X obj 139 261 t a b;
#N canvas 972 279 450 300 accum 0;
#X obj 167 172 +;
#X obj 205 171 f;
#X obj 140 105 sel 0;
#X msg 140 130 0;
#X obj 140 52 inlet;
#X obj 94 270 outlet;
#X msg 94 230 addcomma;
#X obj 167 203 t b a;
#X obj 194 272 outlet;
#X connect 0 0 1 0;
#X connect 0 0 7 0;
#X connect 1 0 0 1;
#X connect 2 0 3 0;
#X connect 2 0 6 0;
#X connect 2 1 0 0;
#X connect 3 0 0 1;
#X connect 3 0 1 0;
#X connect 4 0 2 0;
#X connect 6 0 5 0;
#X connect 7 0 6 0;
#X connect 7 1 8 0;
#X restore 166 501 pd accum;
#X obj 181 469 f;
#X obj 236 356 list;
#X obj 273 328 t b a;
#X obj 327 477 unpack;
#X msg 246 561 add2 \$1;
#X obj 288 532 f;
#X obj 279 501 t b a;
#X msg 457 475 0 0 \, 0.3 2250.23 \, 0 7750.77 2250.23 \,;
#X msg 420 582 set 0 0;
#X obj 167 683 outlet;
#X obj 139 109 inlet;
#X obj 420 106 inlet;
#X text 186 107 second outlet of breakpoints;
#X text 467 107 third outlet of breakpoints;
#X msg 567 168 set;
#X obj 567 137 loadbang;
#X text 332 639 this patch translates the list outputted from the middle
outlet of [tof/breakpoints] into a list in [vline~] format;
#X obj 139 135 t a b;
#X text 457 18 breakpoints to vline~ translator;
#X text 480 33 jsubiavaldez@gmail.com;
#X text 502 49 JRSV (c) copyleft;
#X text 226 687 to a message on top of vline~;
#X text 21 504 adds up the delay times;
#X text 478 456 example------;
#X obj 139 184 list trim;
#X obj 139 161 list prepend set;
#X msg 139 231 0 2250.23 0.3 7750.77 0;
#X obj 139 207 t b a;
#X connect 0 1 1 0;
#X connect 1 0 11 0;
#X connect 1 1 10 1;
#X connect 2 0 3 0;
#X connect 2 0 9 1;
#X connect 2 1 3 1;
#X connect 3 0 4 0;
#X connect 3 1 4 1;
#X connect 4 0 5 0;
#X connect 5 0 9 0;
#X connect 5 1 12 0;
#X connect 6 0 8 0;
#X connect 6 0 9 1;
#X connect 7 0 0 0;
#X connect 7 1 6 0;
#X connect 8 0 16 0;
#X connect 8 0 18 0;
#X connect 8 1 13 0;
#X connect 9 0 8 0;
#X connect 10 0 1 0;
#X connect 11 0 10 0;
#X connect 11 1 2 0;
#X connect 12 0 15 0;
#X connect 12 1 14 1;
#X connect 13 0 16 0;
#X connect 13 0 18 0;
#X connect 14 0 13 0;
#X connect 15 0 14 0;
#X connect 15 1 13 0;
#X connect 17 0 16 0;
#X connect 17 0 18 0;
#X connect 19 0 26 0;
#X connect 20 0 17 0;
#X connect 23 0 35 0;
#X connect 24 0 23 0;
#X connect 26 0 34 0;
#X connect 26 1 17 0;
#X connect 33 0 36 0;
#X connect 34 0 33 0;
#X connect 35 0 7 0;
#X connect 36 0 35 0;
#X connect 36 1 35 0;
#X coords 0 747 1 746 360 120 0;
